<?xml version="1.0" encoding="UTF-8"?>
<svg width="161" height="161" viewBox="0 0 161 161" fill="none" xmlns="http://www.w3.org/2000/svg">
<circle cx="80.1281" cy="80.1281" r="80" transform="rotate(-90 80.1281 80.1281)" fill="#27AF9A"/>
<circle cx="80.1281" cy="80.1281" r="80" transform="rotate(-90 80.1281 80.1281)" fill="url(#paint0_linear)"/>
<path d="M69.3281 127.528C65.9948 127.528 63.2281 126.695 61.0281 125.028C58.8281 123.428 57.7281 121.195 57.7281 118.328C57.7281 110.661 65.5614 105.628 81.2281 103.228C81.8281 101.028 82.2948 98.8948 82.6281 96.8281C79.5614 98.6948 76.3281 99.6281 72.9281 99.6281C66.7281 99.6281 61.7281 97.3948 57.9281 92.9281C54.1281 88.3948 52.2281 82.5281 52.2281 75.3281C52.2281 68.1281 53.6281 61.4614 56.4281 55.3281C59.2281 49.1948 63.2281 44.1281 68.4281 40.1281C73.6948 36.1281 79.2614 34.1281 85.1281 34.1281C91.0614 34.1281 95.8948 35.5948 99.6281 38.5281C103.428 41.3948 105.328 45.0614 105.328 49.5281C105.328 52.1948 104.861 54.3614 103.928 56.0281C103.395 56.0948 102.661 56.1281 101.728 56.1281C96.5948 56.1281 92.7281 55.2948 90.1281 53.6281L90.2281 42.8281C88.6281 41.4281 86.5281 40.7281 83.9281 40.7281C79.8614 40.7281 76.2614 43.8614 73.1281 50.1281C69.9948 56.3281 68.4281 63.8948 68.4281 72.8281C68.4281 78.7614 69.3948 83.1281 71.3281 85.9281C73.2614 88.7281 75.5614 90.1281 78.2281 90.1281C82.2281 90.1281 85.8281 88.1281 89.0281 84.1281C92.2281 80.1281 94.5281 75.3614 95.9281 69.8281L101.328 70.7281C98.7948 89.7948 94.9614 104.028 89.8281 113.428C84.6948 122.828 77.8614 127.528 69.3281 127.528ZM64.2281 118.028C64.2281 119.895 65.7948 120.828 68.9281 120.828C70.5281 120.828 72.4281 119.828 74.6281 117.828C76.8281 115.895 78.4948 113.361 79.6281 110.228C75.7614 110.561 72.2281 111.428 69.0281 112.828C65.8281 114.295 64.2281 116.028 64.2281 118.028Z" fill="white"/>
<defs>
<linearGradient id="paint0_linear" x1="30.2562" y1="20" x2="133.756" y2="137.5" gradientUnits="userSpaceOnUse">
<stop stop-color="#29CCB6"/>
<stop offset="1" stop-color="white" stop-opacity="0"/>
</linearGradient>
</defs>
</svg>

