<svg width="161" height="161" viewBox="0 0 161 161" fill="none" xmlns="http://www.w3.org/2000/svg">
<circle cx="80.1281" cy="80.1281" r="80" transform="rotate(-90 80.1281 80.1281)" fill="#27AF9A"/>
<circle cx="80.1281" cy="80.1281" r="80" transform="rotate(-90 80.1281 80.1281)" fill="url(#paint0_linear)"/>
<path d="M101.128 104.328C100.328 106.395 99.0614 108.028 97.3281 109.228C95.6614 110.428 93.6614 111.028 91.3281 111.028C89.0614 111.028 85.6281 109.628 81.0281 106.828C76.4948 104.028 72.8614 102.228 70.1281 101.428C68.3281 103.828 66.2948 105.828 64.0281 107.428C61.7614 109.028 60.1948 109.828 59.3281 109.828C58.6614 109.828 57.3281 108.395 55.3281 105.528C53.3281 102.595 52.3281 100.495 52.3281 99.2281C52.3281 98.4948 53.3614 97.3948 55.4281 95.9281C57.5614 94.4614 59.7948 93.4614 62.1281 92.9281C63.7948 88.8614 65.5281 82.8614 67.3281 74.9281C69.1281 66.9281 70.5281 58.6948 71.5281 50.2281C71.5281 49.1614 71.1614 47.8948 70.4281 46.4281C69.7614 44.8948 69.0614 43.6614 68.3281 42.7281L67.3281 41.3281L67.6281 39.8281C71.6281 38.6948 78.1948 38.1281 87.3281 38.1281C88.1948 39.5948 88.6281 41.8281 88.6281 44.8281C88.6281 47.8281 87.7614 52.2948 86.0281 58.2281C84.2948 64.1614 81.8948 71.2948 78.8281 79.6281C75.8281 87.8948 74.0948 92.7948 73.6281 94.3281C73.8948 94.3948 74.7281 94.6281 76.1281 95.0281C77.5281 95.4281 78.4281 95.6948 78.8281 95.8281C79.2948 95.8948 80.1614 96.0948 81.4281 96.4281C82.6948 96.6948 83.6948 96.8948 84.4281 97.0281C85.1614 97.0948 86.1281 97.1948 87.3281 97.3281C89.3948 97.6614 91.3281 97.8281 93.1281 97.8281C94.9948 97.8281 96.3281 97.3614 97.1281 96.4281L99.9281 91.2281L103.228 92.0281C103.228 96.3614 102.528 100.461 101.128 104.328Z" fill="white"/>
<defs>
<linearGradient id="paint0_linear" x1="30.2562" y1="20" x2="118.756" y2="147.5" gradientUnits="userSpaceOnUse">
<stop stop-color="#29CCB6"/>
<stop offset="1" stop-color="white" stop-opacity="0"/>
</linearGradient>
</defs>
</svg>
